<mxfile host="app.diagrams.net" modified="2024-06-29T15:40:00.179Z" agent="Mozilla/5.0 (Macintosh; Intel Mac OS X 10_15_7) AppleWebKit/537.36 (KHTML, like Gecko) Chrome/126.0.0.0 Safari/537.36" etag="r36tQp-fBZ_NwZf4SqaF" version="24.6.4" type="device">
  <diagram name="Page-1" id="grMOKXOIgLmIMT-oabsP">
    <mxGraphModel dx="984" dy="659" grid="1" gridSize="10" guides="1" tooltips="1" connect="1" arrows="1" fold="1" page="1" pageScale="1" pageWidth="850" pageHeight="1100" math="0" shadow="0">
      <root>
        <mxCell id="0" />
        <mxCell id="1" parent="0" />
        <mxCell id="vFAaHrRF6U03Ox0TdbtD-9" style="rounded=0;orthogonalLoop=1;jettySize=auto;html=1;exitX=0.5;exitY=1;exitDx=0;exitDy=0;entryX=0.5;entryY=0;entryDx=0;entryDy=0;" edge="1" parent="1" source="PsIL97XCXLDydDJhij2d-1" target="PsIL97XCXLDydDJhij2d-2">
          <mxGeometry relative="1" as="geometry" />
        </mxCell>
        <mxCell id="PsIL97XCXLDydDJhij2d-1" value="*obj" style="text;html=1;align=center;verticalAlign=middle;whiteSpace=wrap;rounded=0;fontFamily=Courier New;fontStyle=1;fontSize=16;" parent="1" vertex="1">
          <mxGeometry x="150" y="50" width="60" height="30" as="geometry" />
        </mxCell>
        <mxCell id="vFAaHrRF6U03Ox0TdbtD-8" style="rounded=0;orthogonalLoop=1;jettySize=auto;html=1;exitX=0.5;exitY=1;exitDx=0;exitDy=0;entryX=0.5;entryY=0;entryDx=0;entryDy=0;" edge="1" parent="1" source="PsIL97XCXLDydDJhij2d-2" target="PsIL97XCXLDydDJhij2d-4">
          <mxGeometry relative="1" as="geometry" />
        </mxCell>
        <mxCell id="PsIL97XCXLDydDJhij2d-2" value="vtable" style="rounded=0;whiteSpace=wrap;html=1;fontFamily=Courier New;fontSize=16;fontStyle=1" parent="1" vertex="1">
          <mxGeometry x="140" y="100" width="80" height="40" as="geometry" />
        </mxCell>
        <mxCell id="PsIL97XCXLDydDJhij2d-4" value="foo()" style="rounded=0;whiteSpace=wrap;html=1;fontFamily=Courier New;fontSize=16;fontStyle=1" parent="1" vertex="1">
          <mxGeometry x="140" y="180" width="80" height="40" as="geometry" />
        </mxCell>
        <mxCell id="vFAaHrRF6U03Ox0TdbtD-3" value="" style="rounded=0;whiteSpace=wrap;html=1;fontFamily=Courier New;fontSize=16;fontStyle=1;dashed=1;" vertex="1" parent="1">
          <mxGeometry x="300" y="180" width="80" height="40" as="geometry" />
        </mxCell>
        <mxCell id="vFAaHrRF6U03Ox0TdbtD-2" value="bar()" style="rounded=0;whiteSpace=wrap;html=1;fontFamily=Courier New;fontSize=16;fontStyle=1" vertex="1" parent="1">
          <mxGeometry x="220" y="180" width="80" height="40" as="geometry" />
        </mxCell>
        <mxCell id="vFAaHrRF6U03Ox0TdbtD-4" value="ctor()" style="rounded=0;whiteSpace=wrap;html=1;fontFamily=Courier New;fontSize=16;fontStyle=1" vertex="1" parent="1">
          <mxGeometry x="380" y="180" width="80" height="40" as="geometry" />
        </mxCell>
        <mxCell id="vFAaHrRF6U03Ox0TdbtD-5" value="dtor()" style="rounded=0;whiteSpace=wrap;html=1;fontFamily=Courier New;fontSize=16;fontStyle=1" vertex="1" parent="1">
          <mxGeometry x="460" y="180" width="80" height="40" as="geometry" />
        </mxCell>
        <mxCell id="vFAaHrRF6U03Ox0TdbtD-7" value="данные" style="rounded=0;whiteSpace=wrap;html=1;fontFamily=Courier New;fontSize=16;fontStyle=1;dashed=1;" vertex="1" parent="1">
          <mxGeometry x="220" y="100" width="80" height="40" as="geometry" />
        </mxCell>
      </root>
    </mxGraphModel>
  </diagram>
</mxfile>
